<svg width="100" height="84" viewBox="0 0 100 84" fill="none" xmlns="http://www.w3.org/2000/svg">
<path d="M95 50C97.7614 50 100.026 47.7559 99.7502 45.0082C99.0994 38.5216 97.1844 32.208 94.0961 26.4302C90.22 19.1785 84.6153 12.9947 77.7785 8.42652C70.9417 3.85832 63.0838 1.04671 54.9009 0.240764C46.7179 -0.565187 38.4625 0.65939 30.8658 3.80602C23.2692 6.95266 16.5658 11.9242 11.3495 18.2803C6.13315 24.6365 2.56488 32.1809 0.960736 40.2455C-0.643404 48.31 -0.233897 56.6457 2.15298 64.5142C4.05475 70.7835 7.16502 76.602 11.2916 81.649C13.0395 83.7868 16.2276 83.7724 18.1802 81.8198V81.8198C20.1328 79.8672 20.104 76.718 18.41 74.5372C15.4178 70.6849 13.1465 66.3061 11.7224 61.6114C9.81288 55.3166 9.48528 48.648 10.7686 42.1964C12.0519 35.7447 14.9065 29.7092 19.0796 24.6243C23.2526 19.5394 28.6153 15.5621 34.6927 13.0448C40.77 10.5275 47.3743 9.54785 53.9207 10.1926C60.4671 10.8374 66.7534 13.0867 72.2228 16.7412C77.6922 20.3958 82.176 25.3428 85.2769 31.1441C87.5895 35.4708 89.0797 40.1731 89.6879 45.0129C90.0322 47.7528 92.2386 50 95 50V50Z" fill="url(#paint0_angular_291_169)"/>
<defs>
<radialGradient id="paint0_angular_291_169" cx="0" cy="0" r="1" gradientUnits="userSpaceOnUse" gradientTransform="translate(50 50) rotate(135) scale(50.2046)">
<stop stop-color="white" stop-opacity="0"/>
<stop offset="0.01" stop-color="white" stop-opacity="0"/>
<stop offset="0.625" stop-color="white"/>
<stop offset="1" stop-color="white"/>
</radialGradient>
</defs>
</svg>
